# xmcd CD database generated by RipIT
#
# Track frame offsets:
# 150
# 22385
# 43558
# 71378
# 88586
# 98694
# 116986
# 129783
# 152289
# 170880
# 178923
# 202211
# 224565
# 249112
# 268013
# 281551
# 302960
#
# Disc length: 4263 seconds
#
# Revision: 1
# Processed by: cddbd v1.5.2PL0 Copyright (c) Steve Scherf et al.
# Submitted via: RipIT 3.9.0 www.suwald.com/ripit/ripit.html on 2010-11-16 at 22:41
#
DISCID=fc10a511
DTITLE=Rufus Beck - Armistead Maupin - Stadtgeschichten CD4
DYEAR=2001
DGENRE=Other
TTITLE0=43 Stadtgeschichten CD4
TTITLE1=44 Stadtgeschichten CD4
TTITLE2=45 Stadtgeschichten CD4
TTITLE3=46 Stadtgeschichten CD4
TTITLE4=47 Stadtgeschichten CD4
TTITLE5=48 Stadtgeschichten CD4
TTITLE6=49 Stadtgeschichten CD4
TTITLE7=50 Stadtgeschichten CD4
TTITLE8=51 Stadtgeschichten CD4
TTITLE9=52 Stadtgeschichten CD4
TTITLE10=53 Stadtgeschichten CD4
TTITLE11=54 Stadtgeschichten CD4
TTITLE12=55 Stadtgeschichten CD4
TTITLE13=56 Stadtgeschichten CD4
TTITLE14=57 Stadtgeschichten CD4
TTITLE15=58 Stadtgeschichten CD4
TTITLE16=59 Stadtgeschichten CD4
EXTD=YEAR: 2001\n
EXTT0=
EXTT1=
EXTT2=
EXTT3=
EXTT4=
EXTT5=
EXTT6=
EXTT7=
EXTT8=
EXTT9=
EXTT10=
EXTT11=
EXTT12=
EXTT13=
EXTT14=
EXTT15=
EXTT16=
PLAYORDER=
